<svg xmlns="http://www.w3.org/2000/svg" xmlns:xlink="http://www.w3.org/1999/xlink" viewBox="0 0 300 300"><defs><clipPath id="clip-path"><rect x="-482.22" width="462.22" height="260" style="fill:none"/></clipPath></defs><g id="Layer_5" data-name="Layer 5"><line x1="243.31" y1="148.57" x2="56.11" y2="148.57" style="fill:none;stroke:#000;stroke-miterlimit:10;stroke-width:11px"/><polyline points="118.88 85.8 56.11 148.57 118.88 211.33" style="fill:none;stroke:#000;stroke-miterlimit:10;stroke-width:11px"/><polyline points="31 59.86 268.42 59.86 268.42 237.28" style="fill:none;stroke:#000;stroke-miterlimit:10;stroke-width:11px"/></g><g id="Layer_9" data-name="Layer 9"><g style="clip-path:url(#clip-path)"><line x1="18.73" y1="103.55" x2="-207.55" y2="-120.88" style="stroke:red;stroke-miterlimit:10;stroke-width:6px"/><line x1="28.29" y1="245.15" x2="-394.96" y2="-161.56" style="stroke:red;stroke-miterlimit:10;stroke-width:3px"/><line x1="35.17" y1="147.84" x2="-241.63" y2="-127.11" style="stroke:red;stroke-miterlimit:10;stroke-width:3px"/><line x1="15.15" y1="266.19" x2="-408.1" y2="-140.52" style="fill:none;stroke:#000;stroke-miterlimit:10;stroke-width:5px"/><line x1="22.03" y1="168.88" x2="-283.76" y2="-135.07" style="fill:none;stroke:#000;stroke-miterlimit:10;stroke-width:5px"/><g style="opacity:0.81"><line x1="-306.54" y1="402.14" x2="53.65" y2="25.43" style="stroke:red;stroke-miterlimit:10;stroke-width:6px"/><line x1="-86.3" y1="286.1" x2="-1.12" y2="199.07" style="stroke:red;stroke-miterlimit:10;stroke-width:6px"/><line x1="-320.63" y1="388.38" x2="39.56" y2="11.66" style="stroke:red;stroke-miterlimit:10;stroke-width:3px"/><line x1="-130.59" y1="302.54" x2="5.11" y2="164.99" style="stroke:red;stroke-miterlimit:10;stroke-width:3px"/><line x1="-341.66" y1="375.24" x2="18.52" y2="-1.48" style="fill:none;stroke:#000;stroke-miterlimit:10;stroke-width:5px"/><line x1="-151.63" y1="289.4" x2="13.07" y2="122.86" style="fill:none;stroke:#000;stroke-miterlimit:10;stroke-width:5px"/></g></g></g></svg>